<svg width="1440" height="121" viewBox="0 0 1440 121" fill="none" xmlns="http://www.w3.org/2000/svg">
<g filter="url(#filter0_d_1_52)">
<rect width="1440" height="113" fill="#B57C00"/>
<path d="M559.533 80.768C556.077 80.768 552.856 80.2133 549.869 79.104C546.925 77.952 544.365 76.3307 542.189 74.24C540.013 72.1493 538.307 69.696 537.069 66.88C535.875 64.064 535.277 60.9707 535.277 57.6C535.277 54.2293 535.875 51.136 537.069 48.32C538.307 45.504 540.013 43.0507 542.189 40.96C544.408 38.8693 546.989 37.2693 549.933 36.16C552.877 35.008 556.099 34.432 559.597 34.432C563.48 34.432 566.979 35.1147 570.093 36.48C573.251 37.8027 575.896 39.7653 578.029 42.368L571.373 48.512C569.837 46.7627 568.131 45.4613 566.253 44.608C564.376 43.712 562.328 43.264 560.109 43.264C558.019 43.264 556.099 43.6053 554.349 44.288C552.6 44.9707 551.085 45.952 549.805 47.232C548.525 48.512 547.523 50.0267 546.797 51.776C546.115 53.5253 545.773 55.4667 545.773 57.6C545.773 59.7333 546.115 61.6747 546.797 63.424C547.523 65.1733 548.525 66.688 549.805 67.968C551.085 69.248 552.6 70.2293 554.349 70.912C556.099 71.5947 558.019 71.936 560.109 71.936C562.328 71.936 564.376 71.5093 566.253 70.656C568.131 69.76 569.837 68.416 571.373 66.624L578.029 72.768C575.896 75.3707 573.251 77.3547 570.093 78.72C566.979 80.0853 563.459 80.768 559.533 80.768ZM578.33 80L598.298 35.2H608.538L628.57 80H617.69L601.306 40.448H605.402L588.954 80H578.33ZM588.314 70.4L591.066 62.528H614.106L616.922 70.4H588.314ZM640.248 80V43.648H625.912V35.2H664.952V43.648H650.616V80H640.248ZM662.393 80L682.361 35.2H692.601L712.633 80H701.753L685.369 40.448H689.465L673.017 80H662.393ZM672.377 70.4L675.129 62.528H698.169L700.985 70.4H672.377ZM681.657 31.552L690.297 22.336H701.049L689.465 31.552H681.657ZM717.281 80V35.2H727.649V71.552H750.113V80H717.281ZM776.916 80.768C773.374 80.768 770.089 80.192 767.06 79.04C764.073 77.888 761.47 76.2667 759.252 74.176C757.076 72.0853 755.369 69.632 754.132 66.816C752.937 64 752.34 60.928 752.34 57.6C752.34 54.272 752.937 51.2 754.132 48.384C755.369 45.568 757.097 43.1147 759.316 41.024C761.534 38.9333 764.137 37.312 767.124 36.16C770.11 35.008 773.353 34.432 776.852 34.432C780.393 34.432 783.636 35.008 786.58 36.16C789.566 37.312 792.148 38.9333 794.324 41.024C796.542 43.1147 798.27 45.568 799.508 48.384C800.745 51.1573 801.364 54.2293 801.364 57.6C801.364 60.928 800.745 64.0213 799.508 66.88C798.27 69.696 796.542 72.1493 794.324 74.24C792.148 76.288 789.566 77.888 786.58 79.04C783.636 80.192 780.414 80.768 776.916 80.768ZM776.852 71.936C778.857 71.936 780.692 71.5947 782.356 70.912C784.062 70.2293 785.556 69.248 786.836 67.968C788.116 66.688 789.097 65.1733 789.78 63.424C790.505 61.6747 790.868 59.7333 790.868 57.6C790.868 55.4667 790.505 53.5253 789.78 51.776C789.097 50.0267 788.116 48.512 786.836 47.232C785.598 45.952 784.126 44.9707 782.42 44.288C780.713 43.6053 778.857 43.264 776.852 43.264C774.846 43.264 772.99 43.6053 771.284 44.288C769.62 44.9707 768.148 45.952 766.868 47.232C765.588 48.512 764.585 50.0267 763.86 51.776C763.177 53.5253 762.836 55.4667 762.836 57.6C762.836 59.6907 763.177 61.632 763.86 63.424C764.585 65.1733 765.566 66.688 766.804 67.968C768.084 69.248 769.577 70.2293 771.284 70.912C772.99 71.5947 774.846 71.936 776.852 71.936ZM830.788 80.768C827.246 80.768 823.982 80.2133 820.996 79.104C818.052 77.952 815.47 76.3307 813.252 74.24C811.076 72.1493 809.369 69.696 808.132 66.88C806.937 64.064 806.34 60.9707 806.34 57.6C806.34 54.2293 806.937 51.136 808.132 48.32C809.369 45.504 811.097 43.0507 813.316 40.96C815.534 38.8693 818.137 37.2693 821.124 36.16C824.11 35.008 827.396 34.432 830.98 34.432C834.948 34.432 838.51 35.0933 841.668 36.416C844.868 37.7387 847.556 39.6587 849.732 42.176L843.076 48.32C841.454 46.6133 839.684 45.3547 837.764 44.544C835.844 43.6907 833.753 43.264 831.492 43.264C829.316 43.264 827.332 43.6053 825.54 44.288C823.748 44.9707 822.19 45.952 820.868 47.232C819.588 48.512 818.585 50.0267 817.86 51.776C817.177 53.5253 816.836 55.4667 816.836 57.6C816.836 59.6907 817.177 61.6107 817.86 63.36C818.585 65.1093 819.588 66.6453 820.868 67.968C822.19 69.248 823.726 70.2293 825.476 70.912C827.268 71.5947 829.23 71.936 831.364 71.936C833.412 71.936 835.396 71.616 837.316 70.976C839.278 70.2933 841.177 69.1627 843.012 67.584L848.9 75.072C846.468 76.9067 843.63 78.3147 840.388 79.296C837.188 80.2773 833.988 80.768 830.788 80.768ZM839.428 73.728V56.896H848.9V75.072L839.428 73.728ZM880.291 80.768C876.749 80.768 873.464 80.192 870.435 79.04C867.448 77.888 864.845 76.2667 862.627 74.176C860.451 72.0853 858.744 69.632 857.507 66.816C856.312 64 855.715 60.928 855.715 57.6C855.715 54.272 856.312 51.2 857.507 48.384C858.744 45.568 860.472 43.1147 862.691 41.024C864.909 38.9333 867.512 37.312 870.499 36.16C873.485 35.008 876.728 34.432 880.227 34.432C883.768 34.432 887.011 35.008 889.955 36.16C892.941 37.312 895.523 38.9333 897.699 41.024C899.917 43.1147 901.645 45.568 902.883 48.384C904.12 51.1573 904.739 54.2293 904.739 57.6C904.739 60.928 904.12 64.0213 902.883 66.88C901.645 69.696 899.917 72.1493 897.699 74.24C895.523 76.288 892.941 77.888 889.955 79.04C887.011 80.192 883.789 80.768 880.291 80.768ZM880.227 71.936C882.232 71.936 884.067 71.5947 885.731 70.912C887.437 70.2293 888.931 69.248 890.211 67.968C891.491 66.688 892.472 65.1733 893.155 63.424C893.88 61.6747 894.243 59.7333 894.243 57.6C894.243 55.4667 893.88 53.5253 893.155 51.776C892.472 50.0267 891.491 48.512 890.211 47.232C888.973 45.952 887.501 44.9707 885.795 44.288C884.088 43.6053 882.232 43.264 880.227 43.264C878.221 43.264 876.365 43.6053 874.659 44.288C872.995 44.9707 871.523 45.952 870.243 47.232C868.963 48.512 867.96 50.0267 867.235 51.776C866.552 53.5253 866.211 55.4667 866.211 57.6C866.211 59.6907 866.552 61.632 867.235 63.424C867.96 65.1733 868.941 66.688 870.179 67.968C871.459 69.248 872.952 70.2293 874.659 70.912C876.365 71.5947 878.221 71.936 880.227 71.936Z" fill="white"/>
<path d="M0 113H406.9L474 0H0V113Z" fill="#F7D547"/>
<path d="M1440 9.83477e-07H1022.8L954 113H1440V9.83477e-07Z" fill="#F7D547"/>
</g>
<defs>
<filter id="filter0_d_1_52" x="-4" y="0" width="1448" height="121" filterUnits="userSpaceOnUse" color-interpolation-filters="sRGB">
<feFlood flood-opacity="0" result="BackgroundImageFix"/>
<feColorMatrix in="SourceAlpha" type="matrix" values="0 0 0 0 0 0 0 0 0 0 0 0 0 0 0 0 0 0 127 0" result="hardAlpha"/>
<feOffset dy="4"/>
<feGaussianBlur stdDeviation="2"/>
<feComposite in2="hardAlpha" operator="out"/>
<feColorMatrix type="matrix" values="0 0 0 0 0 0 0 0 0 0 0 0 0 0 0 0 0 0 0.25 0"/>
<feBlend mode="normal" in2="BackgroundImageFix" result="effect1_dropShadow_1_52"/>
<feBlend mode="normal" in="SourceGraphic" in2="effect1_dropShadow_1_52" result="shape"/>
</filter>
</defs>
</svg>
